# xmcd
#
# Track frame offsets: 
#        150
#        31275
#        52850
#        79012
#        93912
#        111750
#        134750
#        147150
#        168312
#        180700
#        201487
#        220150
#        229637
#        243162
#        269025
#
# Disc length: 3763 seconds
#
# Revision: 2
# Processed by: cddbd v1.5.2PL0 Copyright (c) Steve Scherf et al.
# Submitted via: ExactAudioCopy v1.0b1
#
DISCID=d30eb10f
DTITLE=Various Artist - 30th Anniversary Celebration Album [XRCD24]
DYEAR=2007
DGENRE=Musical
TTITLE0=Eric Bibb - Don't Ever Let Nobody Drag Your Spirits Down
TTITLE1=Peder uf Ugglas - Harvest Song
TTITLE2=Maria Winther - Dreamsville
TTITLE3=East - Cliffhanger
TTITLE4=Kjell Ohman - Crazy Rhythm
TTITLE5=Lars Erstrand - Sweet Georgie Fame
TTITLE6=Tomas Ornberg - 'Tain't Nobodys Bizeness if I Do
TTITLE7=Benny Waters - Out of Nowhere
TTITLE8=East - Pathfinder
TTITLE9=Omnibus wind Ensemble - Sinister Footwear, 2nd Movement
TTITLE10=Tiny Island - When I Feel the Sea Beneath My Soul
TTITLE11=Stockholm Guitar Quartet - Larghetto in c minor
TTITLE12=The Erik Westberg Vocal Ensemble - Jul, Jul, Stralande Jul
TTITLE13=Mattias Wager - Air
TTITLE14=Global Percussion Network - Aurora Borealis
EXTD=
EXTT0=
EXTT1=
EXTT2=
EXTT3=
EXTT4=
EXTT5=
EXTT6=
EXTT7=
EXTT8=
EXTT9=
EXTT10=
EXTT11=
EXTT12=
EXTT13=
EXTT14=
PLAYORDER=
